<svg xmlns="http://www.w3.org/2000/svg" viewBox="0 0 127.77 31.88"><defs><style>.cls-1{fill:#fff;}.cls-2{fill:red;}</style></defs><title>Asset 1</title><g id="Layer_2" data-name="Layer 2"><g id="Layer_1-2" data-name="Layer 1"><rect class="cls-1" width="127.77" height="31.88" rx="2.39"/><path d="M16.6,7.3a1.59,1.59,0,0,1,1.59,1.59A1.59,1.59,0,1,1,16.6,7.3Zm-1.44,5.07H18v12H15.16Z"/><path d="M24.14,10.33h-5V7.57H32.18v2.76h-5v14h-3Z"/><path d="M40.34,20.74c0,2.45-1.94,3.77-4.68,3.77a7.26,7.26,0,0,1-4.92-1.82l1.54-2.26a5.07,5.07,0,0,0,3.45,1.44c1,0,1.73-.33,1.73-1,0-2.07-6.53-.79-6.53-5.19,0-2.2,1.66-3.48,4.37-3.48a7.5,7.5,0,0,1,5,1.83l-1.53,2.23a5.54,5.54,0,0,0-3.51-1.42c-.93,0-1.44.32-1.44.8C33.81,17.36,40.34,16.25,40.34,20.74Z"/><path d="M47.35,24.54c-3.94,0-6-2-6-5.69V7.57H44.2v4.8h2.74V15H44.2v3.81c0,2.19.89,3.08,3.15,3.08Z"/><path class="cls-2" d="M54,12.2a5.84,5.84,0,0,1,6.19,6.17A5.86,5.86,0,0,1,54,24.58a5.87,5.87,0,0,1-6.21-6.21A5.85,5.85,0,0,1,54,12.2Zm0,9.74c2,0,3.33-1.32,3.33-3.55S56,14.84,54,14.84s-3.31,1.32-3.31,3.55S52,21.94,54,21.94Z"/><path d="M67.34,21.94a3.09,3.09,0,0,0,3-1.92h3a5.8,5.8,0,0,1-6,4.56,5.87,5.87,0,0,1-6.21-6.21,5.85,5.85,0,0,1,6.21-6.17,5.76,5.76,0,0,1,6,4.49h-3a3.07,3.07,0,0,0-3-1.85c-2,0-3.31,1.32-3.31,3.55S65.35,21.94,67.34,21.94Z"/><path d="M74.47,7.57h2.88V19.73l5.42-7.36H86.2l-4.44,6,4.35,6H82.7l-2.64-3.68-2.71,3.68H74.47Z"/><path d="M89.83,7.57v6a4.41,4.41,0,0,1,3.52-1.37,5.84,5.84,0,0,1,6,6.22,5.84,5.84,0,0,1-6.15,6.17A5.92,5.92,0,0,1,87,18.39V7.57Zm3.31,7.24c-2,0-3.31,1.32-3.31,3.56s1.32,3.55,3.31,3.55,3.33-1.32,3.33-3.55S95.16,14.81,93.14,14.81Z"/><path d="M112.75,7.57V18.39a5.93,5.93,0,0,1-6.29,6.17,5.83,5.83,0,0,1-6.12-6.17c0-3.72,2.49-6.22,6-6.22a4.5,4.5,0,0,1,3.56,1.37v-6Zm-6.22,14.35a3.2,3.2,0,0,0,3.34-3.55c0-2.24-1.32-3.56-3.34-3.56s-3.31,1.32-3.31,3.56S104.54,21.92,106.53,21.92Z"/></g></g></svg>